P3
# Created by GIMP version 2.10.38 PNM plug-in
50 50
255
255
255
255
255
255
255
255
255
255
255
255
255
255
255
255
255
255
255
255
255
255
255
255
255
255
255
255
255
255
255
255
255
255
255
255
255
255
255
255
255
255
255
255
255
255
255
255
255
255
255
255
255
255
255
255
255
255
255
255
255
255
255
255
255
255
255
255
255
255
255
255
255
255
255
255
255
255
255
255
255
255
255
255
255
255
255
255
255
255
255
255
255
255
255
255
255
255
255
255
255
255
255
255
255
255
255
255
255
255
255
255
255
255
255
255
255
255
255
255
255
255
255
255
255
255
255
255
255
255
255
255
255
255
255
255
255
255
255
255
255
255
255
255
255
255
255
255
255
255
255
255
255
255
255
255
255
255
255
255
255
255
255
255
255
255
255
255
255
255
255
255
255
255
255
255
255
255
255
255
255
255
255
255
255
255
255
255
255
255
255
255
255
255
255
255
255
255
255
255
255
255
255
255
255
255
255
255
255
255
255
255
255
255
255
255
255
255
255
255
255
255
255
255
255
255
255
255
255
255
255
255
255
255
255
255
255
255
255
255
255
255
255
255
255
255
255
255
255
255
255
255
255
255
255
255
255
255
255
255
255
255
255
255
255
255
255
255
255
255
255
255
255
255
255
255
255
255
255
255
255
255
255
255
255
255
255
255
255
255
255
255
255
255
255
255
255
255
255
255
255
255
255
255
255
255
255
255
255
255
255
255
255
255
255
255
255
255
255
255
255
255
255
255
255
255
255
255
255
255
255
255
255
255
255
255
255
255
255
255
255
255
255
255
255
255
255
255
255
255
255
255
255
255
255
255
255
255
255
255
255
255
255
255
255
255
255
255
255
255
255
255
255
255
255
255
255
255
255
255
255
255
255
255
255
255
255
255
255
255
255
255
255
255
255
255
255
255
255
255
255
255
255
255
255
255
255
255
255
255
255
255
255
255
255
255
255
255
255
255
255
255
255
255
255
255
255
255
255
255
255
255
255
255
255
255
255
255
255
255
255
255
255
255
255
255
255
255
255
255
255
255
255
255
255
255
255
255
255
255
255
255
255
255
255
255
255
255
255
255
255
255
255
255
255
255
51
51
255
51
51
255
51
51
255
51
51
255
255
255
255
255
255
255
255
255
255
255
255
255
255
255
255
255
255
255
255
255
255
255
255
255
255
255
255
255
255
255
255
255
255
255
255
255
255
255
255
255
255
255
255
255
255
255
255
255
255
255
255
255
255
255
255
255
255
255
255
255
255
255
255
255
255
255
255
255
255
255
255
255
255
255
255
255
255
255
255
255
255
255
255
255
255
255
255
255
255
255
255
255
255
255
255
255
255
255
255
255
255
255
255
255
255
255
255
255
255
255
255
255
255
255
255
255
255
255
255
255
255
255
255
255
255
255
255
255
255
255
255
255
51
51
255
51
51
255
51
51
255
51
51
255
51
51
255
51
51
255
51
51
255
51
51
255
51
51
255
51
51
255
255
255
255
255
255
255
255
255
255
255
255
255
255
255
255
255
255
255
255
255
255
255
255
255
255
255
255
255
255
255
255
255
255
255
255
255
255
255
255
255
255
255
255
255
255
255
255
255
255
255
255
255
255
255
255
255
255
255
255
255
255
255
255
255
255
255
255
255
255
255
255
255
255
255
255
255
255
255
255
255
255
255
255
255
255
255
255
255
255
255
255
255
255
255
255
255
255
255
255
255
255
255
255
255
255
255
255
255
255
255
255
255
255
255
255
255
255
51
51
255
51
51
255
51
51
255
51
51
255
51
51
255
51
51
255
51
51
255
51
51
255
51
51
255
51
51
255
51
51
255
51
51
255
51
51
255
255
255
255
255
255
255
255
255
255
255
255
255
255
255
255
255
255
255
255
255
255
255
255
255
255
255
255
255
255
255
255
255
255
255
255
255
255
255
255
255
255
255
255
255
255
255
255
255
255
255
255
255
255
255
255
255
255
255
255
255
255
255
255
255
255
255
255
255
255
255
255
255
255
255
255
255
255
255
255
255
255
255
255
255
255
255
255
255
255
255
255
255
255
255
255
255
255
255
255
255
255
255
255
255
255
255
255
255
255
255
255
51
51
255
51
51
255
51
51
255
51
51
255
51
51
255
51
51
255
51
51
255
51
51
255
51
51
255
51
51
255
51
51
255
51
51
255
51
51
255
51
51
255
255
255
255
255
255
255
255
255
255
255
255
255
255
255
255
255
255
255
255
255
255
255
255
255
255
255
255
255
255
255
255
255
255
255
255
255
255
255
255
255
255
255
255
255
255
255
255
255
255
255
255
255
255
255
255
255
255
255
255
255
255
255
255
255
255
255
255
255
255
255
255
255
255
255
255
255
255
255
255
255
255
255
255
255
255
255
255
255
255
255
255
255
255
255
255
255
255
255
255
255
255
255
255
255
255
255
255
255
51
51
255
51
51
255
51
51
255
51
51
255
51
51
255
51
51
255
51
51
255
51
51
255
51
51
255
51
51
255
51
51
255
51
51
255
51
51
255
51
51
255
51
51
255
255
255
255
255
255
255
255
255
255
255
255
255
255
255
255
255
255
255
255
255
255
255
255
255
255
255
255
255
255
255
255
255
255
255
255
255
255
255
255
255
255
255
255
255
255
255
255
255
255
255
255
255
255
255
255
255
255
255
255
255
255
255
51
51
255
255
255
255
255
255
255
255
255
255
255
255
255
255
255
255
255
255
255
255
255
255
255
255
255
255
255
255
255
255
255
255
255
255
255
255
255
255
255
255
255
51
51
255
51
51
255
51
51
255
51
51
255
51
51
255
51
51
255
51
51
255
51
51
255
51
51
255
51
51
255
51
51
255
51
51
255
51
51
255
51
51
255
51
51
255
51
51
255
255
255
255
255
255
255
255
255
255
255
255
255
255
255
255
255
255
255
255
255
255
255
255
255
255
255
255
255
255
255
255
255
255
255
255
255
255
255
255
255
255
255
255
255
51
51
255
51
51
255
51
51
255
51
51
255
51
51
255
51
51
255
51
51
255
255
255
255
255
255
255
255
255
255
255
255
255
255
255
255
255
255
255
255
255
255
255
255
255
255
255
255
255
255
255
255
255
255
255
255
255
255
255
255
255
51
51
255
51
51
255
51
51
255
51
51
255
51
51
255
51
51
255
51
51
255
51
51
255
51
51
255
51
51
255
51
51
255
51
51
255
51
51
255
51
51
255
51
51
255
51
51
255
255
255
255
255
255
255
255
255
255
255
255
255
255
255
255
255
255
255
255
255
255
255
255
255
255
255
255
255
255
255
255
255
255
255
255
255
255
255
255
255
255
51
51
255
51
51
255
51
51
255
51
51
255
51
51
255
51
51
255
51
51
255
255
255
255
255
255
255
255
255
255
255
255
255
255
255
255
255
255
255
255
255
255
255
255
255
255
255
255
255
255
255
255
255
255
255
255
255
255
255
255
255
255
255
255
51
51
255
51
51
255
51
51
255
51
51
255
51
51
255
51
51
255
51
51
255
51
51
255
51
51
255
51
51
255
51
51
255
51
51
255
51
51
255
51
51
255
51
51
255
255
255
255
255
255
255
255
255
255
255
255
255
255
255
255
255
255
255
255
255
255
255
255
255
255
255
255
255
255
255
255
255
255
255
255
255
255
255
51
51
255
51
51
255
51
51
255
51
51
255
51
51
255
51
51
255
51
51
255
51
51
255
255
255
255
255
255
255
255
255
255
255
255
255
255
255
255
255
255
255
255
255
255
255
255
255
255
255
255
255
255
255
255
255
255
255
255
255
255
255
255
255
255
255
255
255
255
255
51
51
255
51
51
255
51
51
255
51
51
255
51
51
255
51
51
255
51
51
255
51
51
255
51
51
255
51
51
255
51
51
255
51
51
255
51
51
255
51
51
255
255
255
255
255
255
255
255
255
255
255
255
255
255
255
255
255
255
255
255
255
255
255
255
255
255
255
255
255
255
255
255
255
255
255
255
51
51
255
51
51
255
51
51
255
51
51
255
51
51
255
51
51
255
51
51
255
51
51
255
51
51
255
255
255
255
255
255
255
255
255
255
255
255
255
255
255
255
255
255
255
255
255
255
255
255
255
255
255
255
255
255
255
255
255
255
255
255
255
255
255
255
255
255
255
255
255
255
255
255
255
255
255
255
255
51
51
255
51
51
255
51
51
255
51
51
255
51
51
255
51
51
255
51
51
255
51
51
255
51
51
255
51
51
255
51
51
255
51
51
255
255
255
255
255
255
255
255
255
255
255
255
255
255
255
255
255
255
255
255
255
255
255
255
255
255
255
255
255
255
255
255
255
255
255
255
51
51
255
51
51
255
51
51
255
51
51
255
51
51
255
51
51
255
51
51
255
51
51
255
51
51
255
255
255
255
255
255
255
255
255
255
255
255
255
255
255
255
255
255
255
255
255
255
255
255
255
255
255
255
255
255
255
255
255
255
255
255
255
255
255
255
255
255
255
255
255
255
255
255
255
255
255
255
255
51
51
255
51
51
255
51
51
255
51
51
255
51
51
255
51
51
255
51
51
255
51
51
255
51
51
255
51
51
255
51
51
255
51
51
255
51
51
255
255
255
255
255
255
255
255
255
255
255
255
255
255
255
255
255
255
255
255
255
255
255
255
255
255
255
255
255
255
51
51
255
51
51
255
51
51
255
51
51
255
51
51
255
51
51
255
51
51
255
51
51
255
51
51
255
51
51
255
255
255
255
255
255
255
255
255
255
255
255
255
255
255
255
255
255
255
255
255
255
255
255
255
255
255
255
255
255
255
255
255
255
255
255
255
255
255
255
255
255
255
255
255
255
255
255
255
255
255
255
255
51
51
255
51
51
255
51
51
255
51
51
255
51
51
255
51
51
255
51
51
255
51
51
255
51
51
255
51
51
255
51
51
255
51
51
255
51
51
255
255
255
255
255
255
255
255
255
255
255
255
255
255
255
255
255
255
255
255
255
255
255
255
255
255
255
255
255
255
51
51
255
51
51
255
51
51
255
51
51
255
51
51
255
51
51
255
51
51
255
51
51
255
51
51
255
51
51
255
255
255
255
255
255
255
255
255
255
255
255
255
255
255
255
255
255
255
255
255
255
255
255
255
255
255
255
255
255
255
255
255
255
255
255
255
255
255
255
255
255
255
255
255
255
255
255
255
255
255
255
255
51
51
255
51
51
255
51
51
255
51
51
255
51
51
255
51
51
255
51
51
255
51
51
255
51
51
255
51
51
255
51
51
255
51
51
255
255
255
255
255
255
255
255
255
255
255
255
255
255
255
255
255
255
255
255
255
255
255
255
255
255
255
255
255
255
255
255
255
51
51
255
51
51
255
51
51
255
51
51
255
51
51
255
51
51
255
51
51
255
51
51
255
51
51
255
51
51
255
51
51
255
51
51
255
51
51
255
51
51
255
51
51
255
255
255
255
255
255
255
255
255
255
255
255
255
255
255
255
255
255
255
255
255
255
255
255
255
255
255
255
255
255
255
255
255
255
255
51
51
255
51
51
255
51
51
255
51
51
255
51
51
255
51
51
255
51
51
255
51
51
255
51
51
255
51
51
255
51
51
255
51
51
255
51
51
255
255
255
255
255
255
255
255
255
255
255
255
255
255
255
255
255
255
255
255
255
255
255
255
255
255
255
255
255
255
51
51
255
51
51
255
51
51
255
51
51
255
51
51
255
51
51
255
51
51
255
51
51
255
51
51
255
51
51
255
51
51
255
51
51
255
51
51
255
51
51
255
51
51
255
51
51
255
51
51
255
51
51
255
255
255
255
255
255
255
255
255
255
255
255
255
255
255
255
255
255
255
255
255
255
255
255
255
255
255
255
255
51
51
255
51
51
255
51
51
255
51
51
255
51
51
255
51
51
255
51
51
255
51
51
255
51
51
255
51
51
255
51
51
255
51
51
255
51
51
255
255
255
255
255
255
255
255
255
255
255
255
255
255
255
255
255
255
51
51
255
51
51
255
51
51
255
51
51
255
51
51
255
51
51
255
51
51
255
51
51
255
51
51
255
51
51
255
51
51
255
51
51
255
51
51
255
51
51
255
51
51
255
51
51
255
51
51
255
51
51
255
51
51
255
51
51
255
51
51
255
51
51
255
255
255
255
255
255
255
255
255
255
255
255
255
255
255
255
255
255
255
255
255
255
255
255
255
255
255
255
255
51
51
255
51
51
255
51
51
255
51
51
255
51
51
255
51
51
255
51
51
255
51
51
255
51
51
255
51
51
255
51
51
255
51
51
255
255
255
255
255
255
255
255
255
255
255
255
51
51
255
51
51
255
51
51
255
51
51
255
51
51
255
51
51
255
51
51
255
51
51
255
51
51
255
51
51
255
51
51
255
51
51
255
51
51
255
51
51
255
51
51
255
51
51
255
51
51
255
51
51
255
51
51
255
51
51
255
51
51
255
51
51
255
51
51
255
51
51
255
51
51
255
255
255
255
255
255
255
255
255
255
255
255
255
255
255
255
255
255
255
255
255
255
255
255
255
255
255
255
255
255
255
255
255
255
255
51
51
255
51
51
255
51
51
255
51
51
255
51
51
255
51
51
255
51
51
255
51
51
255
51
51
255
255
255
255
255
255
51
51
255
51
51
255
51
51
255
51
51
255
51
51
255
51
51
255
51
51
255
51
51
255
51
51
255
51
51
255
51
51
255
51
51
255
51
51
255
51
51
255
51
51
255
51
51
255
51
51
255
51
51
255
51
51
255
51
51
255
51
51
255
51
51
255
51
51
255
51
51
255
51
51
255
51
51
255
51
51
255
51
51
255
255
255
255
255
255
255
255
255
255
255
255
255
255
255
255
255
255
255
255
255
255
255
255
255
255
255
255
255
255
255
255
255
255
255
255
255
255
255
255
255
51
51
255
51
51
255
51
51
255
51
51
255
51
51
255
255
255
255
255
255
255
255
255
51
51
255
51
51
255
51
51
255
51
51
255
51
51
255
51
51
255
51
51
255
51
51
255
51
51
255
51
51
255
51
51
255
51
51
255
51
51
255
51
51
255
51
51
255
51
51
255
51
51
255
51
51
255
51
51
255
51
51
255
51
51
255
51
51
255
51
51
255
51
51
255
51
51
255
51
51
255
51
51
255
51
51
255
51
51
255
255
255
255
255
255
255
255
255
255
255
255
255
255
255
255
255
255
255
255
255
255
255
255
255
255
255
255
255
255
255
255
255
255
255
255
255
255
255
255
255
255
255
255
255
255
255
255
255
255
255
255
255
255
255
255
255
255
255
255
255
51
51
255
51
51
255
51
51
255
51
51
255
51
51
255
51
51
255
51
51
255
51
51
255
51
51
255
51
51
255
51
51
255
51
51
255
51
51
255
51
51
255
51
51
255
51
51
255
51
51
255
51
51
255
51
51
255
51
51
255
51
51
255
51
51
255
51
51
255
51
51
255
51
51
255
51
51
255
51
51
255
51
51
255
51
51
255
51
51
255
255
255
255
255
255
255
255
255
255
255
255
255
255
255
255
255
255
255
255
255
255
255
255
255
255
255
255
255
255
255
255
255
255
255
255
255
255
255
255
255
255
255
255
255
255
255
255
255
255
255
255
255
255
255
255
255
255
255
255
255
51
51
255
51
51
255
51
51
255
51
51
255
51
51
255
51
51
255
51
51
255
51
51
255
51
51
255
51
51
255
51
51
255
51
51
255
51
51
255
51
51
255
51
51
255
51
51
255
51
51
255
51
51
255
51
51
255
51
51
255
51
51
255
51
51
255
51
51
255
51
51
255
51
51
255
51
51
255
51
51
255
51
51
255
51
51
255
51
51
255
255
255
255
255
255
255
255
255
255
255
255
255
255
255
255
255
255
255
255
255
255
255
255
255
255
255
255
255
255
255
255
255
255
255
255
255
255
255
255
255
255
255
255
255
255
255
255
255
255
255
255
255
255
255
255
255
255
255
255
255
51
51
255
51
51
255
51
51
255
51
51
255
51
51
255
51
51
255
51
51
255
51
51
255
51
51
255
51
51
255
51
51
255
51
51
255
51
51
255
51
51
255
51
51
255
51
51
255
51
51
255
51
51
255
51
51
255
51
51
255
51
51
255
51
51
255
51
51
255
51
51
255
51
51
255
51
51
255
51
51
255
51
51
255
51
51
255
255
255
255
255
255
255
255
255
255
255
255
255
255
255
255
255
255
255
51
255
51
51
255
51
51
255
51
51
255
51
255
255
255
255
255
255
255
255
255
255
255
255
255
255
255
255
255
255
255
255
255
255
255
255
255
255
255
255
255
255
255
255
255
51
51
255
51
51
255
51
51
255
51
51
255
51
51
255
51
51
255
51
51
255
51
51
255
51
51
255
51
51
255
51
51
255
51
51
255
51
51
255
51
51
255
51
51
255
51
51
255
51
51
255
51
51
255
51
51
255
51
51
255
51
51
255
51
51
255
51
51
255
51
51
255
51
51
255
51
51
255
51
51
255
51
51
255
51
51
255
255
255
255
255
255
255
255
255
255
255
255
255
255
255
255
51
255
51
51
255
51
51
255
51
51
255
51
255
255
255
255
255
255
255
255
255
255
255
255
255
255
255
255
255
255
255
255
255
255
255
255
255
255
255
255
255
255
255
255
255
255
255
255
51
51
255
51
51
255
51
51
255
51
51
255
51
51
255
51
51
255
51
51
255
51
51
255
51
51
255
51
51
255
51
51
255
51
51
255
51
51
255
51
51
255
51
51
255
51
51
255
51
51
255
51
51
255
51
51
255
51
51
255
51
51
255
51
51
255
51
51
255
51
51
255
51
51
255
51
51
255
51
51
255
51
51
255
51
51
255
255
255
255
255
255
255
255
255
255
255
255
255
255
255
255
51
255
51
51
255
51
51
255
51
255
255
255
255
255
255
255
255
255
255
255
255
255
255
255
255
255
255
255
255
255
255
255
255
255
255
255
255
255
255
255
255
255
255
255
255
255
255
255
255
255
255
51
51
255
51
51
255
51
51
255
51
51
255
51
51
255
51
51
255
51
51
255
51
51
255
51
51
255
51
51
255
51
51
255
51
51
255
51
51
255
51
51
255
51
51
255
51
51
255
51
51
255
51
51
255
51
51
255
51
51
255
51
51
255
51
51
255
51
51
255
51
51
255
51
51
255
51
51
255
51
51
255
255
255
255
255
255
255
255
255
255
255
255
255
255
255
255
255
255
255
51
255
51
51
255
51
51
255
51
51
255
51
51
255
51
51
255
51
51
255
51
51
255
51
51
255
51
255
255
255
255
255
255
255
255
255
255
255
255
255
255
255
255
255
255
255
255
255
255
255
255
255
255
255
51
51
255
51
51
255
51
51
255
51
51
255
51
51
255
51
51
255
51
51
255
51
51
255
51
51
255
51
51
255
51
51
255
51
51
255
51
51
255
51
51
255
51
51
255
51
51
255
51
51
255
51
51
255
51
51
255
51
51
255
51
51
255
51
51
255
51
51
255
51
51
255
51
51
255
51
51
255
255
255
255
255
255
255
255
255
255
255
255
255
255
255
255
255
255
255
51
255
51
51
255
51
51
255
51
51
255
51
51
255
51
51
255
51
51
255
51
51
255
51
51
255
51
51
255
51
255
255
255
255
255
255
255
255
255
255
255
255
255
255
255
255
255
255
255
255
255
255
255
255
255
255
255
51
51
255
51
51
255
51
51
255
51
51
255
51
51
255
51
51
255
51
51
255
51
51
255
51
51
255
51
51
255
51
51
255
51
51
255
51
51
255
51
51
255
51
51
255
51
51
255
51
51
255
51
51
255
51
51
255
51
51
255
51
51
255
51
51
255
51
51
255
51
51
255
255
255
255
255
255
255
255
255
255
255
255
255
255
255
255
255
255
255
255
255
255
255
255
255
51
255
51
51
255
51
51
255
51
51
255
51
51
255
51
51
255
51
51
255
51
51
255
51
51
255
51
51
255
51
255
255
255
255
255
255
255
255
255
255
255
255
255
255
255
255
255
255
255
255
255
255
255
255
255
255
255
51
51
255
51
51
255
51
51
255
51
51
255
51
51
255
51
51
255
51
51
255
51
51
255
51
51
255
51
51
255
51
51
255
51
51
255
51
51
255
51
51
255
51
51
255
51
51
255
51
51
255
51
51
255
51
51
255
51
51
255
51
51
255
51
51
255
51
51
255
255
255
255
255
255
255
255
255
255
255
255
255
255
255
255
255
255
255
255
255
255
255
255
255
51
255
51
51
255
51
51
255
51
51
255
51
51
255
51
51
255
51
51
255
51
51
255
51
51
255
51
51
255
51
51
255
51
51
255
51
51
255
51
51
255
51
51
255
51
255
255
255
255
255
255
255
255
255
255
255
255
255
255
255
255
255
255
51
51
255
51
51
255
51
51
255
51
51
255
51
51
255
51
51
255
51
51
255
51
51
255
51
51
255
51
51
255
51
51
255
51
51
255
51
51
255
51
51
255
51
51
255
51
51
255
51
51
255
51
51
255
51
51
255
255
255
255
255
255
255
255
255
255
255
255
255
255
255
255
255
255
255
255
255
255
255
255
255
255
255
255
255
255
255
51
255
51
51
255
51
51
255
51
51
255
51
51
255
51
51
255
51
51
255
51
51
255
51
51
255
51
51
255
51
51
255
51
51
255
51
51
255
51
51
255
51
51
255
51
51
255
51
51
255
51
255
255
255
255
255
255
255
255
255
255
255
255
255
255
255
255
255
255
255
255
255
255
255
255
255
255
255
51
51
255
51
51
255
51
51
255
51
51
255
51
51
255
51
51
255
51
51
255
51
51
255
51
51
255
51
51
255
51
51
255
51
51
255
255
255
255
255
255
255
255
255
255
255
255
255
255
255
255
255
255
255
255
255
255
255
255
255
255
255
255
255
255
255
255
255
255
51
255
51
51
255
51
51
255
51
51
255
51
51
255
51
51
255
51
51
255
51
51
255
51
51
255
51
51
255
51
51
255
51
51
255
51
51
255
51
51
255
51
51
255
51
51
255
51
51
255
51
51
255
51
51
255
51
51
255
51
255
255
255
255
255
255
255
255
255
255
255
255
255
255
255
255
255
255
255
255
255
255
255
255
255
255
255
255
255
255
255
255
255
255
255
255
51
51
255
51
51
255
51
51
255
51
51
255
51
51
255
255
255
255
255
255
255
255
255
255
255
255
255
255
255
255
255
255
255
255
255
255
255
255
255
255
255
255
255
255
255
255
255
255
255
255
255
255
255
255
51
255
51
51
255
51
51
255
51
51
255
51
51
255
51
51
255
51
51
255
51
51
255
51
51
255
51
51
255
51
51
255
51
51
255
51
51
255
51
51
255
51
51
255
51
51
255
51
51
255
51
51
255
51
51
255
51
51
255
51
51
255
51
255
255
255
255
255
255
255
255
255
255
255
255
255
255
255
255
255
255
255
255
255
255
255
255
255
255
255
255
255
255
255
255
255
255
255
255
255
255
255
255
255
255
255
255
255
255
255
255
255
255
255
255
255
255
255
255
255
255
255
255
255
255
255
255
255
255
255
255
255
255
255
255
255
255
255
255
255
255
255
255
255
255
255
255
51
255
51
51
255
51
51
255
51
51
255
51
51
255
51
51
255
51
51
255
51
51
255
51
51
255
51
51
255
51
51
255
51
51
255
51
51
255
51
51
255
51
51
255
51
51
255
51
51
255
51
51
255
51
51
255
51
51
255
51
51
255
51
51
255
51
51
255
51
255
255
255
255
255
255
255
255
255
255
255
255
255
255
255
255
255
255
255
255
255
255
255
255
255
255
255
255
255
255
255
255
255
255
255
255
255
255
255
255
255
255
255
255
255
255
255
255
255
255
255
255
255
255
255
255
255
255
255
255
255
255
255
255
255
255
255
255
255
255
255
255
255
255
255
255
255
255
255
255
255
51
255
51
51
255
51
51
255
51
51
255
51
51
255
51
51
255
51
51
255
51
51
255
51
51
255
51
51
255
51
51
255
51
51
255
51
255
255
255
255
255
255
255
255
255
255
255
255
51
255
51
51
255
51
51
255
51
51
255
51
51
255
51
51
255
51
51
255
51
51
255
51
255
255
255
255
255
255
255
255
255
255
255
255
255
255
255
255
255
255
255
255
255
255
255
255
255
255
255
255
255
255
255
255
255
255
255
255
255
255
255
255
255
255
255
255
255
255
255
255
255
255
255
255
255
255
255
255
255
255
255
255
255
255
255
255
255
255
255
255
255
255
255
255
255
255
255
51
255
51
51
255
51
51
255
51
51
255
51
51
255
51
51
255
51
51
255
51
51
255
51
51
255
51
51
255
51
51
255
51
51
255
51
255
255
255
255
255
255
255
255
255
255
255
255
255
255
255
51
255
51
51
255
51
51
255
51
51
255
51
51
255
51
51
255
51
51
255
51
51
255
51
51
255
51
255
255
255
255
255
255
255
255
255
255
255
255
255
255
255
255
255
255
255
255
255
255
255
255
255
255
255
255
255
255
255
255
255
255
255
255
255
255
255
255
255
255
255
255
255
255
255
255
255
255
255
255
255
255
255
255
255
255
255
255
255
255
255
255
255
255
255
255
255
255
255
255
51
255
51
51
255
51
51
255
51
51
255
51
51
255
51
51
255
51
51
255
51
51
255
51
51
255
51
51
255
51
51
255
51
255
255
255
255
255
255
255
255
255
255
255
255
255
255
255
255
255
255
51
255
51
51
255
51
51
255
51
51
255
51
51
255
51
51
255
51
51
255
51
51
255
51
51
255
51
51
255
51
255
255
255
255
255
255
255
255
255
255
255
255
255
255
255
255
255
255
255
255
255
255
255
255
255
255
255
255
255
255
255
255
255
255
255
255
255
255
255
255
255
255
255
255
255
255
255
255
255
255
255
255
255
255
255
255
255
255
255
255
255
255
255
255
255
255
255
255
255
255
255
255
51
255
51
51
255
51
51
255
51
51
255
51
51
255
51
51
255
51
51
255
51
51
255
51
51
255
51
255
255
255
255
255
255
255
255
255
255
255
255
255
255
255
255
255
255
255
255
255
51
255
51
51
255
51
51
255
51
51
255
51
51
255
51
51
255
51
51
255
51
51
255
51
51
255
51
51
255
51
51
255
51
255
255
255
255
255
255
255
255
255
255
255
255
255
255
255
255
255
255
255
255
255
255
255
255
255
255
255
255
255
255
255
255
255
255
255
255
255
255
255
255
255
255
255
255
255
255
255
255
255
255
255
255
255
255
255
255
255
255
255
255
255
255
255
255
255
255
255
255
255
255
255
255
51
255
51
51
255
51
51
255
51
51
255
51
51
255
51
51
255
51
51
255
51
255
255
255
255
255
255
255
255
255
255
255
255
255
255
255
255
255
255
255
255
255
51
255
51
51
255
51
51
255
51
51
255
51
51
255
51
51
255
51
51
255
51
51
255
51
51
255
51
51
255
51
51
255
51
51
255
51
51
255
51
51
255
51
255
255
255
255
255
255
255
255
255
255
255
255
255
255
255
255
255
255
255
255
255
255
255
255
255
255
255
255
255
255
255
255
255
255
255
255
255
255
255
255
255
255
255
255
255
255
255
255
255
255
255
255
255
255
255
255
255
255
255
255
255
255
255
255
255
255
255
255
255
255
255
255
51
255
51
51
255
51
255
255
255
255
255
255
255
255
255
255
255
255
255
255
255
255
255
255
255
255
255
255
255
255
255
255
255
255
255
255
51
255
51
51
255
51
51
255
51
51
255
51
51
255
51
51
255
51
51
255
51
51
255
51
51
255
51
51
255
51
51
255
51
51
255
51
51
255
51
51
255
51
255
255
255
255
255
255
255
255
255
255
255
255
255
255
255
255
255
255
255
255
255
255
255
255
255
255
255
255
255
255
255
255
255
255
255
255
255
255
255
255
255
255
255
255
255
255
255
255
255
255
255
255
255
255
255
255
255
255
255
255
255
255
255
255
255
255
255
255
255
255
255
255
255
255
255
255
255
255
255
255
255
255
255
255
255
255
255
255
255
255
255
255
255
255
255
255
255
255
255
255
255
255
255
255
255
255
255
255
51
255
51
51
255
51
51
255
51
51
255
51
51
255
51
51
255
51
51
255
51
51
255
51
51
255
51
51
255
51
51
255
51
51
255
51
51
255
51
51
255
51
255
255
255
255
255
255
255
255
255
255
255
255
255
255
255
255
255
255
255
255
255
255
255
255
255
255
255
255
255
255
255
255
255
255
255
255
255
255
255
255
255
255
255
255
255
255
255
255
255
255
255
255
255
255
255
255
255
255
255
255
255
255
255
255
255
255
255
255
255
255
255
255
255
255
255
255
255
255
255
255
255
255
255
255
255
255
255
255
255
255
255
255
255
255
255
255
255
255
255
255
255
255
255
255
255
255
255
255
51
255
51
51
255
51
51
255
51
51
255
51
51
255
51
51
255
51
51
255
51
51
255
51
51
255
51
51
255
51
51
255
51
51
255
51
51
255
51
51
255
51
255
255
255
255
255
255
255
255
255
255
255
255
255
255
255
255
255
255
255
255
255
255
255
255
255
255
255
255
255
255
255
255
255
255
255
255
255
255
255
255
255
255
255
255
255
255
255
255
255
255
255
255
255
255
255
255
255
255
255
255
255
255
255
255
255
255
255
255
255
255
255
255
255
255
255
255
255
255
255
255
255
255
255
255
255
255
255
255
255
255
255
255
255
255
255
255
255
255
255
255
255
255
255
255
255
255
255
255
255
255
255
51
255
51
51
255
51
51
255
51
51
255
51
51
255
51
51
255
51
51
255
51
51
255
51
51
255
51
51
255
51
51
255
51
51
255
51
51
255
51
255
255
255
255
255
255
255
255
255
255
255
255
255
255
255
255
255
255
255
255
255
255
255
255
255
255
255
255
255
255
255
255
255
255
255
255
255
255
255
255
255
255
255
255
255
255
255
255
255
255
255
255
255
255
255
255
255
255
255
255
255
255
255
255
255
255
255
255
255
255
255
255
255
255
255
255
255
255
255
255
255
255
255
255
255
255
255
255
255
255
255
255
255
255
255
255
255
255
255
255
255
255
255
255
255
255
255
255
255
255
255
255
255
255
51
255
51
51
255
51
51
255
51
51
255
51
51
255
51
51
255
51
51
255
51
51
255
51
51
255
51
51
255
51
51
255
51
51
255
51
255
255
255
255
255
255
255
255
255
255
255
255
255
255
255
255
255
255
255
255
255
255
255
255
255
255
255
255
255
255
255
255
255
255
255
255
255
255
255
255
255
255
255
255
255
255
255
255
255
255
255
255
255
255
255
255
255
255
255
255
255
255
255
255
255
255
255
255
255
255
255
255
255
255
255
255
255
255
255
255
255
255
255
255
255
255
255
255
255
255
255
255
255
255
255
255
255
255
255
255
255
255
255
255
255
255
255
255
255
255
255
51
255
51
51
255
51
51
255
51
51
255
51
51
255
51
51
255
51
51
255
51
51
255
51
51
255
51
51
255
51
51
255
51
51
255
51
51
255
51
255
255
255
255
255
255
255
255
255
255
255
255
255
255
255
255
255
255
255
255
255
255
255
255
255
255
255
255
255
255
255
255
255
255
255
255
255
255
255
255
255
255
255
255
255
255
255
255
255
255
255
255
255
255
255
255
255
255
255
255
255
255
255
255
255
255
255
255
255
255
255
255
255
255
255
255
255
255
255
255
255
255
255
255
255
255
255
255
255
255
255
255
255
255
255
255
255
255
255
255
255
255
255
255
255
255
255
255
51
255
51
51
255
51
51
255
51
51
255
51
51
255
51
51
255
51
51
255
51
51
255
51
51
255
51
51
255
51
51
255
51
51
255
51
51
255
51
51
255
51
51
255
51
255
255
255
255
255
255
255
255
255
255
255
255
255
255
255
255
255
255
255
255
255
255
255
255
255
255
255
255
255
255
255
255
255
255
255
255
255
255
255
255
255
255
255
255
255
255
255
255
255
255
255
255
255
255
255
255
255
255
255
255
255
255
255
255
255
255
255
255
255
255
255
255
255
255
255
255
255
255
255
255
255
255
255
255
255
255
255
255
255
255
255
255
255
255
255
255
255
255
255
255
255
255
255
255
255
51
255
51
51
255
51
51
255
51
51
255
51
51
255
51
51
255
51
51
255
51
51
255
51
51
255
51
51
255
51
51
255
51
51
255
51
51
255
51
51
255
51
51
255
51
255
255
255
255
255
255
255
255
255
255
255
255
255
255
255
255
255
255
255
255
255
255
255
255
255
255
255
255
255
255
255
255
255
255
255
255
255
255
255
255
255
255
255
255
255
255
255
255
255
255
255
255
255
255
255
255
255
255
255
255
255
255
255
255
255
255
255
255
255
255
255
255
255
255
255
255
255
255
255
255
255
255
255
255
255
255
255
255
255
255
255
255
255
255
255
255
255
255
255
255
255
255
51
255
51
51
255
51
51
255
51
51
255
51
51
255
51
51
255
51
51
255
51
51
255
51
51
255
51
51
255
51
51
255
51
51
255
51
51
255
51
51
255
51
51
255
51
51
255
51
51
255
51
255
255
255
255
255
255
255
255
255
255
255
255
255
255
255
255
255
255
255
255
255
255
255
255
255
255
255
255
255
255
255
255
255
255
255
255
255
255
255
255
255
255
255
255
255
255
255
255
255
255
255
255
255
255
255
255
255
255
255
255
255
255
255
255
255
255
255
255
255
255
255
255
255
255
255
255
255
255
255
255
255
255
255
255
255
255
255
255
255
255
255
255
255
255
255
255
51
255
51
51
255
51
51
255
51
51
255
51
51
255
51
51
255
51
51
255
51
51
255
51
51
255
51
51
255
51
51
255
51
51
255
51
51
255
51
51
255
51
51
255
51
51
255
51
51
255
51
51
255
51
255
255
255
255
255
255
255
255
255
255
255
255
255
255
255
255
255
255
255
255
255
255
255
255
255
255
255
255
255
255
255
255
255
255
255
255
255
255
255
255
255
255
255
255
255
255
255
255
